{"title":"Left in Darkness 2006 DVDRip Xvid BigPerm LKRG","uid":6567166,"size":1071794018,"categoryP":"video","categoryS":"movies","magnet":"?xt=urn:btih:462a3d580272abbb66453e796b38a34ee3e0dd08&amp;dn=Left+in+Darkness+2006+DVDRip+Xvid+BigPerm+LKRG&amp;tr=udp%3A%2F%2Ftracker.openbittorrent.com%3A80&amp;tr=udp%3A%2F%2Fopen.demonii.com%3A1337&amp;tr=udp%3A%2F%2Ftracker.coppersurfer.tk%3A6969&amp;tr=udp%3A%2F%2Fexodus.desync.com%3A6969","seeders":0,"leechers":1,"uploader":".BONE.","files":2,"time":1311739475,"description":"\nPLOT\n\nA young woman, whose mother died giving birth to her, is facing eternal life in either Heaven\nor Hell. She must make the choice who to listen to, her guardian angel, whom she met when she\nwas a child, or the evil ones.\n &lt;a href=&quot;\nhttp://www.imdb.com/title/tt0466875/&quot; rel=&quot;nofollow&quot; target=&quot;_NEW&quot;&gt;\nhttp://www.imdb.com/title/tt0466875/&lt;/a&gt;\n\nEncoded By .......: BigPerm1828\nRuntime ..........: 1h 27mn\nFile Size ........: .99GB\nResolution .......: 704x396\nIMDb URL .........: http://www.imdb.com/title/tt0466875/\nGenre ............: Horror | Thriller\nLanguage .........: English\nVideo\nID : 0\nFormat : MPEG-4 Visual\nFormat profile : Advanced Simple@L5\nFormat settings, BVOP : Yes\nFormat settings, QPel : No\nFormat settings, GMC : No warppoints\nFormat settings, Matrix : Default (H.263)\nCodec ID : XVID\nCodec ID/Hint : XviD\nDuration : 1h 27mn\nBit rate : 1 177 Kbps\nWidth : 704 pixels\nHeight : 396 pixels\nDisplay aspect ratio : 16:9\nFrame rate : 29.970 fps\nColor space : YUV\nChroma subsampling : 4:2:0\nBit depth : 8 bits\nScan type : Progressive\nCompression mode : Lossy\nBits/(Pixel*Frame) : 0.141\nStream size : 738 MiB (72%)\nWriting library : XviD 1.2.1 (UTC 2008-12-04)\n\nAudio\nID : 1\nFormat : AC-3\nFormat/Info : Audio Coding 3\nMode extension : CM (complete main)\nCodec ID : 2000\nDuration : 1h 27mn\nBit rate mode : Constant\nBit rate : 448 Kbps\nChannel(s) : 6 channels\nChannel positions : Front: L C R, Side: L R, LFE\nSampling rate : 48.0 KHz\nBit depth : 16 bits\nCompression mode : Lossy\nVideo delay : 33ms\nStream size : 281 MiB (27%)\nAlignment : Split accross interleaves\nInterleave, duration : 500 ms (14.98 video frames)\nInterleave, preload duration : 500 ms\n &lt;a href=&quot;\nhttp://leetleech.org/images/80723581055568172798.png&quot; rel=&quot;nofollow&quot; target=&quot;_NEW&quot;&gt;\nhttp://leetleech.org/images/80723581055568172798.png&lt;/a&gt;\n &lt;a href=&quot;\nhttp://leetleech.org/images/59959259467250100690.png&quot; rel=&quot;nofollow&quot; target=&quot;_NEW&quot;&gt;\nhttp://leetleech.org/images/59959259467250100690.png&lt;/a&gt;\n &lt;a href=&quot;\nhttp://leetleech.org/images/09105465928434080331.png&quot; rel=&quot;nofollow&quot; target=&quot;_NEW&quot;&gt;\nhttp://leetleech.org/images/09105465928434080331.png&lt;/a&gt;\n &lt;a href=&quot;\nhttp://leetleech.org/images/47751897452815545630.png&quot; rel=&quot;nofollow&quot; target=&quot;_NEW&quot;&gt;\nhttp://leetleech.org/images/47751897452815545630.png&lt;/a&gt;\n &lt;a href=&quot;\nhttp://leetleech.org/images/22160234850844400020.png&quot; rel=&quot;nofollow&quot; target=&quot;_NEW&quot;&gt;\nhttp://leetleech.org/images/22160234850844400020.png&lt;/a&gt;","torrent":{"xt":"urn:btih:462a3d580272abbb66453e796b38a34ee3e0dd08","amp;dn":"Left+in+Darkness+2006+DVDRip+Xvid+BigPerm+LKRG","amp;tr":["udp%3A%2F%2Ftracker.openbittorrent.com%3A80","udp%3A%2F%2Fopen.demonii.com%3A1337","udp%3A%2F%2Ftracker.coppersurfer.tk%3A6969","udp%3A%2F%2Fexodus.desync.com%3A6969"],"infoHash":"462a3d580272abbb66453e796b38a34ee3e0dd08","infoHashBuffer":{"type":"Buffer","data":[70,42,61,88,2,114,171,187,102,69,62,121,107,56,163,78,227,224,221,8]},"announce":[],"urlList":[]}}